HIERARCHY
ROOT Hips
{
	OFFSET 0.00000 0.00000 0.00000
	CHANNELS 6 Xposition Yposition Zposition Zrotation Yrotation Xrotation 
	JOINT LHipJoint
	{
		OFFSET 0 0 0
		CHANNELS 3 Zrotation Yrotation Xrotation
		JOINT LeftHip
		{
			OFFSET 1.48831 -1.59570 0.95625
			CHANNELS 3 Zrotation Yrotation Xrotation
			JOINT LeftKnee
			{
				OFFSET 2.20856 -6.06797 0.00000
				CHANNELS 3 Zrotation Yrotation Xrotation
				JOINT LeftAnkle
				{
					OFFSET 2.62924 -7.22379 0.00000
					CHANNELS 3 Zrotation Yrotation Xrotation
					JOINT LeftToe
					{
						OFFSET 0.16802 -0.46163 2.41673
						CHANNELS 3 Zrotation Yrotation Xrotation
						End Site
						{
							OFFSET 0.00000 -0.00000 1.23760
						}
					}
				}
			}
		}
	}
	JOINT RHipJoint
	{
		OFFSET 0 0 0
		CHANNELS 3 Zrotation Yrotation Xrotation
		JOINT RightHip
		{
			OFFSET -1.56796 -1.59570 0.95625
			CHANNELS 3 Zrotation Yrotation Xrotation
			JOINT RightKnee
			{
				OFFSET -2.29239 -6.29829 0.00000
				CHANNELS 3 Zrotation Yrotation Xrotation
				JOINT RightAnkle
				{
					OFFSET -2.66963 -7.33475 0.00000
					CHANNELS 3 Zrotation Yrotation Xrotation
					JOINT RightToe
					{
						OFFSET -0.18185 -0.49964 2.34359
						CHANNELS 3 Zrotation Yrotation Xrotation
						End Site
						{
							OFFSET -0.00000 -0.00000 1.20477
						}
					}
				}
			}
		}
	}
	JOINT lowerback
	{
		OFFSET 0 0 0
		CHANNELS 3 Zrotation Yrotation Xrotation
		JOINT Chest
		{
			OFFSET 0.03505 2.15832 -0.34324
			CHANNELS 3 Zrotation Yrotation Xrotation
			JOINT Chest2
			{
				OFFSET -0.01089 2.17963 0.04689
				CHANNELS 3 Zrotation Yrotation Xrotation
				JOINT lowerneck
				{
					OFFSET 0 0 0
					CHANNELS 3 Zrotation Yrotation Xrotation
					JOINT Neck
					{
						OFFSET 0.04686 1.69404 0.22159
						CHANNELS 3 Zrotation Yrotation Xrotation
						JOINT Head
						{
							OFFSET 0.00265 1.69305 -0.01513
							CHANNELS 3 Zrotation Yrotation Xrotation
							End Site
							{
								OFFSET -0.00415 1.80215 -0.03034
							}
						}
					}
				}
				JOINT LeftCollar
				{
					OFFSET 0 0 0
					CHANNELS 3 Zrotation Yrotation Xrotation
					JOINT LeftShoulder
					{
						OFFSET 3.67184 1.11724 -0.19002
CHANNELS 3 Zrotation Xrotation Yrotation
						JOINT LeftElbow
						{
OFFSET 0 -5.177140 -0.000000
CHANNELS 3 Zrotation Xrotation Yrotation
							JOINT LeftWrist
							{
OFFSET 0 -3.436790 -0.000000
CHANNELS 3 Zrotation Xrotation Yrotation
								JOINT lhand
								{
									OFFSET 0 0 0
CHANNELS 3 Zrotation Xrotation Yrotation
									JOINT LFingers
									{
OFFSET 0 -0.573120 -0.000000
CHANNELS 3 Zrotation Xrotation Yrotation
										End Site
										{
OFFSET 0 -0.462060 -0.000000
										}
									}
								}
								JOINT LThumb
								{
OFFSET 0 0.000000 0.000000
CHANNELS 3 Zrotation Xrotation Yrotation
									End Site
									{
OFFSET 0 -0.469120 0.469120
									}
								}
							}
						}
					}
				}
				JOINT RightCollar
				{
					OFFSET 0 0 0
					CHANNELS 3 Zrotation Yrotation Xrotation
					JOINT RightShoulder
					{
						OFFSET -3.59596 0.95831 -0.26050
CHANNELS 3 Zrotation Xrotation Yrotation
						JOINT RightElbow
						{
OFFSET 0 -5.239080 -0.000000
CHANNELS 3 Zrotation Xrotation Yrotation
							JOINT RightWrist
							{
OFFSET 0 -3.464850 -0.000000
CHANNELS 3 Zrotation Xrotation Yrotation
								JOINT rhand
								{
									OFFSET 0 0 0
CHANNELS 3 Zrotation Xrotation Yrotation
									JOINT RFingers
									{
OFFSET 0 -0.608750 -0.000000
CHANNELS 3 Zrotation Xrotation Yrotation
										End Site
										{
OFFSET 0 -0.490790 -0.000000
										}
									}
								}
								JOINT RThumb
								{
OFFSET 0 0.000000 0.000000
CHANNELS 3 Zrotation Xrotation Yrotation
									End Site
									{
OFFSET 0 -0.498290 0.498290
									}
								}
							}
						}
					}
				}
			}
		}
	}
}
MOTION
Frames: 9
Frame Time: 0.008333333333333333
2.194000 16.550900 -2.688400 -161.612000 -85.881100 157.889000 0.000000 0.000000 0.000000 -15.311500 7.714400 2.497900 0.569000 4.831100 13.427500 0.400400 8.960300 -18.402500 0.017400 -0.850800 -2.338400 0.000000 0.000000 0.000000 19.432400 6.296900 -4.775200 -3.019900 -10.727200 31.365400 -1.520400 -7.919800 -27.339800 -0.001200 0.220300 -0.605400 0.969200 -1.328800 4.664500 0.409800 -1.857500 4.352600 -0.068500 -0.958800 1.843800 4.107800 2.387700 -2.279100 -0.227300 3.031800 2.949900 -0.701500 1.550400 1.365400 -0.000000 0.000000 0.000000 4.562200 1.891300 -24.144800 16.893400 -26.717000 4.039300 13.390500 -24.338700 -6.699100 0.000000 0.000000 0.000000 -7.125000 0.000000 0.000000 -11.266900 36.657800 -2.348400 -0.000000 0.000000 0.000000 -5.344900 2.295500 21.907600 -17.304400 -27.257300 -4.225800 -13.369800 2.234100 4.374700 0.000000 0.000000 0.000000 7.125000 0.000000 -0.000000 10.912300 34.314900 2.905700
2.193399 16.552067 -2.694702 -160.650397 -85.634622 157.032414 0.000000 0.000000 0.000000 -15.168453 7.590589 2.389854 0.580733 4.879666 13.565765 0.402966 9.155520 -18.627048 0.016732 -0.834574 -2.293662 0.000000 0.000000 0.000000 19.613399 6.390576 -4.842272 -3.003164 -10.700095 31.275050 -1.505627 -7.883333 -27.210824 -0.001067 0.208487 -0.572822 1.047135 -1.314255 4.579615 0.438236 -1.837952 4.364776 -0.085933 -0.947192 1.902454 3.670534 2.417647 -2.711296 0.331832 3.040540 3.441246 -0.446168 1.564854 1.577836 0.000000 0.000000 0.000000 4.503616 2.021596 -23.511067 16.170752 -25.751565 3.719825 13.430475 -23.893459 -6.635604 0.000000 0.000000 0.000000 -7.125000 0.000000 0.000000 -11.222805 36.596205 -2.356148 0.000000 0.000000 0.000000 -5.254125 2.398733 21.670165 -17.219456 -27.146175 -4.186980 -13.451428 2.364438 4.230198 0.000000 0.000000 0.000000 7.125000 0.000000 0.000000 10.824867 34.172532 2.919742
2.191568 16.553702 -2.700071 -160.776232 -85.449122 157.209977 0.000000 0.000000 0.000000 -15.131239 7.465200 2.462135 0.576337 4.861483 13.513945 0.400803 9.370250 -18.820452 0.013231 -0.743096 -2.042272 0.000000 0.000000 0.000000 19.683552 6.453278 -4.892563 -2.999059 -10.693488 31.253028 -1.499432 -7.802068 -27.112838 -0.000866 0.190008 -0.522038 1.031266 -1.293266 4.538326 0.439686 -1.812366 4.392107 -0.077866 -0.934932 1.954396 3.654117 2.369509 -2.723820 0.336941 2.975063 3.514248 -0.442861 1.532849 1.601967 0.000000 0.000000 0.000000 4.460438 2.091701 -22.733715 15.420400 -24.728436 3.399886 13.399403 -23.435897 -6.573087 0.000000 0.000000 0.000000 -7.125000 0.000000 0.000000 -11.237884 36.531483 -2.377449 0.000000 0.000000 0.000000 -5.238058 2.460881 21.542891 -17.060498 -26.937433 -4.114687 -13.460817 2.457886 4.238917 0.000000 0.000000 0.000000 7.125000 0.000000 0.000000 10.818544 34.181649 2.915541
2.193202 16.555403 -2.705204 -160.027207 -85.389479 156.517274 0.000000 0.000000 0.000000 -15.056336 7.346675 2.436867 0.577901 4.867806 13.531916 0.398805 9.478733 -18.908788 0.012697 -0.727096 -1.998117 0.000000 0.000000 0.000000 19.776180 6.447795 -4.933125 -2.986784 -10.673674 31.187114 -1.493196 -7.785392 -27.057165 -0.000699 0.166262 -0.456794 1.041032 -1.318223 4.546603 0.437284 -1.845929 4.404597 -0.084833 -0.951614 1.962094 3.632468 2.297291 -2.725843 0.339428 2.878050 3.595248 -0.440388 1.485127 1.626152 0.000000 0.000000 0.000000 4.434590 2.117794 -22.072032 14.825357 -23.902180 3.154821 13.375253 -22.926429 -6.770831 0.000000 0.000000 0.000000 -7.125000 0.000000 0.000000 -11.292027 36.729133 -2.333732 0.000000 0.000000 0.000000 -5.194670 2.546342 21.400130 -16.966663 -26.813820 -4.072239 -13.516323 2.462523 4.215996 0.000000 0.000000 0.000000 7.125000 0.000000 0.000000 10.770185 34.160899 2.907595
2.196339 16.558200 -2.707968 -159.204487 -85.336423 155.781910 0.000000 0.000000 0.000000 -14.983642 7.214678 2.349609 0.582739 4.887988 13.589392 0.408807 9.496678 -19.038426 0.008497 -0.595232 -1.635755 0.000000 0.000000 0.000000 19.867816 6.485597 -4.989910 -2.971926 -10.649454 31.106628 -1.483903 -7.799142 -26.999892 -0.000432 0.136930 -0.376210 1.084825 -1.335213 4.521707 0.436268 -1.867617 4.405264 -0.110498 -0.961207 1.975226 3.594968 2.182708 -2.782423 0.328948 2.723393 3.699629 -0.439976 1.408629 1.666636 0.000000 0.000000 0.000000 4.385201 2.128276 -21.691696 14.574331 -23.549790 3.053859 13.375996 -22.738897 -6.661593 0.000000 0.000000 0.000000 -7.125000 0.000000 0.000000 -11.272467 36.619186 -2.360447 0.000000 0.000000 0.000000 -5.171218 2.548491 21.240754 -16.857326 -26.669290 -4.023097 -13.531984 2.603402 4.087147 0.000000 0.000000 0.000000 7.125000 0.000000 0.000000 10.738921 34.031372 2.933233
2.204451 16.559469 -2.709135 -159.247165 -85.292707 155.897290 0.000000 0.000000 0.000000 -14.974243 7.230282 2.232341 0.582813 4.888154 13.589885 0.399747 9.552290 -18.994753 0.010996 -0.678097 -1.863490 0.000000 0.000000 0.000000 19.875343 6.530256 -5.106407 -2.974222 -10.653214 31.119103 -1.479022 -7.791740 -26.960001 -0.000400 0.133536 -0.366851 1.061213 -1.343460 4.585899 0.423769 -1.876699 4.370237 -0.107465 -0.966217 1.903328 3.553676 2.070321 -2.774467 0.301067 2.577366 3.690922 -0.445408 1.334683 1.659653 0.000000 0.000000 0.000000 4.343276 2.258224 -21.853359 14.803901 -23.872208 3.146177 13.337709 -22.931519 -6.632801 0.000000 0.000000 0.000000 -7.125000 0.000000 0.000000 -11.299284 36.588005 -2.374993 0.000000 0.000000 0.000000 -5.176388 2.581760 21.160821 -16.907862 -26.736119 -4.045783 -13.315007 2.629474 4.296406 0.000000 0.000000 0.000000 7.125000 0.000000 0.000000 10.945134 34.233583 2.936650
2.214015 16.561502 -2.709398 -158.766698 -85.282073 155.464748 0.000000 0.000000 0.000000 -14.938700 7.174775 2.114623 0.588317 4.910773 13.654210 0.401808 9.546870 -19.012257 0.009798 -0.637973 -1.753027 0.000000 0.000000 0.000000 19.919010 6.567733 -5.167958 -2.967688 -10.642482 31.083537 -1.474680 -7.815210 -26.944435 -0.000300 0.106908 -0.293725 1.059245 -1.365133 4.601015 0.425610 -1.906048 4.379393 -0.103318 -0.981125 1.904244 3.495780 1.956170 -2.809630 0.300112 2.425496 3.746587 -0.439083 1.258946 1.680227 0.000000 0.000000 0.000000 4.300542 2.197234 -22.191788 15.185766 -24.404262 3.302317 13.386929 -23.211254 -6.587213 0.000000 0.000000 0.000000 -7.125000 0.000000 0.000000 -11.250667 36.544928 -2.376526 0.000000 0.000000 0.000000 -5.234263 2.474780 21.354817 -16.946247 -26.786827 -4.063112 -13.461432 2.501808 4.169144 0.000000 0.000000 0.000000 7.125000 0.000000 0.000000 10.807866 34.111353 2.931325
2.220949 16.561300 -2.708231 -158.828549 -85.256863 155.513119 0.000000 0.000000 0.000000 -14.935053 7.202642 2.096142 0.588934 4.913434 13.661926 0.400414 9.549210 -18.998762 0.009731 -0.637096 -1.750832 0.000000 0.000000 0.000000 19.919055 6.581086 -5.191541 -2.971061 -10.648078 31.101883 -1.470469 -7.820993 -26.918059 -0.000200 0.098608 -0.270830 1.045968 -1.377161 4.612999 0.410783 -1.923304 4.403296 -0.110665 -0.990292 1.922091 3.403429 1.844058 -2.785746 0.328815 2.279125 3.797261 -0.418087 1.185666 1.687898 0.000000 0.000000 0.000000 4.282198 2.080794 -22.582995 15.649500 -25.043095 3.496259 13.395602 -23.524266 -6.586749 0.000000 0.000000 0.000000 -7.125000 0.000000 0.000000 -11.243361 36.544980 -2.374869 0.000000 0.000000 0.000000 -5.250542 2.415423 21.589852 -17.113083 -27.006578 -4.138534 -13.471548 2.305080 4.157960 0.000000 0.000000 0.000000 7.125000 0.000000 0.000000 10.798101 34.100442 2.931461
2.225471 16.560664 -2.705658 -159.288758 -85.239520 155.927980 0.000000 0.000000 0.000000 -14.966918 7.261783 2.135884 0.585707 4.900091 13.623802 0.397907 9.547544 -18.969511 0.009636 -0.633396 -1.740509 0.000000 0.000000 0.000000 19.878778 6.581360 -5.160964 -2.971349 -10.648527 31.103493 -1.470151 -7.804673 -26.905166 -0.000200 0.094356 -0.259169 1.022660 -1.404256 4.643146 0.380902 -1.959705 4.409065 -0.126513 -1.008820 1.910587 3.327771 1.745197 -2.785540 0.337713 2.148553 3.904178 -0.405418 1.120791 1.718956 0.000000 0.000000 0.000000 4.296707 2.033922 -23.010322 16.118493 -25.680989 3.697147 13.445071 -23.798485 -6.636343 0.000000 0.000000 0.000000 -7.125000 0.000000 0.000000 -11.210849 36.597801 -2.353095 0.000000 0.000000 0.000000 -5.224418 2.370389 21.766363 -17.243725 -27.178005 -4.198085 -13.452867 2.205235 4.246626 0.000000 0.000000 0.000000 7.125000 0.000000 0.000000 10.826124 34.189069 2.915644
